<svg xmlns:xlink="http://www.w3.org/1999/xlink" width="24.276" xmlns="http://www.w3.org/2000/svg" height="24.276" id="screenshot-fea98781-87c2-80d4-8002-03a4453d007c" viewBox="-0.138 -0.138 24.276 24.276" style="-webkit-print-color-adjust: exact;" fill="none" version="1.1"><g id="shape-fea98781-87c2-80d4-8002-03a4453d007c" width="12" version="1.1" height="12" rx="0" ry="0" style="fill: rgb(0, 0, 0);"><g id="shape-fea98781-87c2-80d4-8002-03a4453ee7a8"><defs id="defs2" rx="0" ry="0" style="fill: rgb(0, 0, 0);"/></g><g id="shape-fea98781-87c2-80d4-8002-03a4453f6292" rx="0" ry="0" style="fill: rgb(0, 0, 0);"><g id="shape-fea98781-87c2-80d4-8002-03a44542b380"><g class="fills" id="fills-fea98781-87c2-80d4-8002-03a44542b380"><rect rx="0" ry="0" x="0" y="0" transform="matrix(1.000000, 0.000000, 0.000000, 1.000000, 0.000000, 0.000000)" width="3" height="23.999930224010313" style="stroke: none; stroke-miterlimit: 4; stroke-dasharray: none; fill: rgb(165, 239, 172); fill-opacity: 1;"/></g><g id="strokes-fea98781-87c2-80d4-8002-03a44542b380" class="strokes"><g class="stroke-shape"><rect rx="0" ry="0" x="0" y="0" transform="matrix(1.000000, 0.000000, 0.000000, 1.000000, 0.000000, 0.000000)" width="3" height="23.999930224010313" style="stroke: none; stroke-miterlimit: 4; stroke-dasharray: none; fill: none; stroke-width: 0.275386; stroke-opacity: 1;"/></g></g></g><g id="shape-fea98781-87c2-80d4-8002-03a44542dd7d"><g class="fills" id="fills-fea98781-87c2-80d4-8002-03a44542dd7d"><rect rx="0" ry="0" x="0" y="21" transform="matrix(1.000000, 0.000000, 0.000000, 1.000000, 0.000000, 0.000000)" width="24" height="3" style="stroke: none; stroke-miterlimit: 4; stroke-dasharray: none; fill: rgb(165, 239, 172); fill-opacity: 1;"/></g><g id="strokes-fea98781-87c2-80d4-8002-03a44542dd7d" class="strokes"><g class="stroke-shape"><rect rx="0" ry="0" x="0" y="21" transform="matrix(1.000000, 0.000000, 0.000000, 1.000000, 0.000000, 0.000000)" width="24" height="3" style="stroke: none; stroke-miterlimit: 4; stroke-dasharray: none; fill: none; stroke-width: 0.276348; stroke-opacity: 1;"/></g></g></g><g id="shape-fea98781-87c2-80d4-8002-03a44543293d"><g class="fills" id="fills-fea98781-87c2-80d4-8002-03a44543293d"><rect rx="1.5" ry="1.5" x="7.400090781751828" y="10.320378028651703" transform="matrix(-0.485732, -0.874108, 0.895244, -0.445577, 7.469654, 27.707754)" width="9.499999999999886" height="3" style="fill-rule: evenodd; stroke: none; stroke-miterlimit: 4; stroke-dasharray: none; fill: rgb(165, 239, 172); fill-opacity: 1;"/></g></g><g id="shape-fea98781-87c2-80d4-8002-03a44543a59d"><g class="fills" id="fills-fea98781-87c2-80d4-8002-03a44543a59d"><rect rx="1.5" ry="1.5" x="9.916580393732545" y="9.051625054708893" transform="matrix(0.493265, -0.869879, -0.891361, -0.453294, 17.850846, 29.832525)" width="13.5" height="3" style="fill-rule: evenodd; stroke: none; stroke-miterlimit: 4; stroke-dasharray: none; fill: rgb(165, 239, 172); fill-opacity: 1;"/></g></g><g id="shape-fea98781-87c2-80d4-8002-03a44544bca7"><g class="fills" id="fills-fea98781-87c2-80d4-8002-03a44544bca7"><rect rx="1.5" ry="1.5" x="2.4233153669828766" y="11.181745974957721" transform="matrix(0.493265, -0.869879, -0.891361, -0.453294, 15.445718, 25.540104)" width="11.499999999999943" height="3" style="fill-rule: evenodd; stroke: none; stroke-miterlimit: 4; stroke-dasharray: none; fill: rgb(165, 239, 172); fill-opacity: 1;"/></g></g><g id="shape-fea98781-87c2-80d4-8002-03a44546f189"><g class="fills" id="fills-fea98781-87c2-80d4-8002-03a44546f189"><path rx="0" ry="0" d="M20.752,0.000C19.889,-0.001,19.062,0.341,18.452,0.951C17.842,1.561,17.500,2.388,17.500,3.250C17.500,4.112,17.842,4.939,18.452,5.549C19.062,6.159,19.889,6.501,20.752,6.500C21.614,6.500,22.440,6.157,23.049,5.548C23.658,4.938,24.000,4.112,24.000,3.250C24.000,2.388,23.658,1.562,23.049,0.952C22.440,0.343,21.614,0.000,20.752,0.000ZZM20.752,1.680C21.160,1.680,21.551,1.845,21.839,2.140C22.127,2.434,22.289,2.834,22.289,3.250C22.289,3.666,22.127,4.066,21.839,4.360C21.551,4.655,21.160,4.820,20.752,4.820C20.344,4.820,19.953,4.655,19.665,4.360C19.377,4.066,19.215,3.666,19.215,3.250C19.215,2.834,19.377,2.434,19.665,2.140C19.953,1.845,20.344,1.680,20.752,1.680ZZ" style="fill-rule: evenodd; stroke: none; stroke-miterlimit: 4; stroke-dasharray: none; fill: rgb(165, 239, 172); fill-opacity: 1;"/></g></g></g></g></svg>