<svg xmlns:xlink="http://www.w3.org/1999/xlink" width="282" xmlns="http://www.w3.org/2000/svg" height="283" id="screenshot-b8eadac8-0d0a-803f-8001-f21d3cdd64ab" viewBox="-0 -28.069 282 283" style="-webkit-print-color-adjust: exact;" fill="none" version="1.1"><g id="shape-b8eadac8-0d0a-803f-8001-f21d3cdd64ab" rx="0" ry="0"><g id="shape-b8eadac8-0d0a-803f-8001-f21d3cdd64ac"><g id="fills-b8eadac8-0d0a-803f-8001-f21d3cdd64ac"><path rx="0" ry="0" d="M109.571,9.931C137.517,9.931,100.264,111.526,122.198,132.482C145.546,154.789,244.294,116.502,244,143.181C243.256,210.759,189.641,254.931,122.198,254.931C54.755,254.931,0,200.064,0,132.482C0,64.9,42.128,9.931,109.571,9.931Z" style="fill: rgb(83, 126, 255); fill-opacity: 1;"/></g></g><g id="shape-b8eadac8-0d0a-803f-8001-f21d3cdd64ad"><g id="fills-b8eadac8-0d0a-803f-8001-f21d3cdd64ad"><path rx="0" ry="0" d="M175.542,0C149.482,1.117,140.591,15.797,137.561,37.981L175.542,0ZM191.08,0.936L136.216,55.801C136.025,61.771,136.001,68.07,136,74.618L205.696,4.922C201.025,3.12,196.136,1.774,191.08,0.936ZM216.799,10.293L136.158,90.935C136.386,98.109,136.94,103.445,138.281,107.414L227.652,18.042C224.271,15.153,220.64,12.557,216.799,10.293ZM235.913,26.256L146.049,116.12C149.806,117.738,154.968,118.423,162.059,118.712L243.735,37.035C241.43,33.211,238.81,29.605,235.913,26.256ZM249.229,48.016L178.324,118.921C178.488,118.921,178.653,118.921,178.818,118.921C185.068,118.921,191.144,118.96,196.959,118.887L253.502,62.344C252.524,57.381,251.084,52.589,249.229,48.016ZM254.999,77.322L214.206,118.114C224.287,117.188,233.037,115.226,239.821,111.101L249.685,101.237C253.115,95.481,255,87.858,255,77.764C255,77.617,255,77.469,254.999,77.322Z" style="fill: rgb(51, 51, 51); fill-opacity: 1;"/></g></g></g></svg>